<?xml version="1.0" encoding="utf-8"?>
<!-- Generator: Adobe Illustrator 22.1.0, SVG Export Plug-In . SVG Version: 6.00 Build 0)  -->
<svg version="1.1" id="Capa_1" xmlns="http://www.w3.org/2000/svg" xmlns:xlink="http://www.w3.org/1999/xlink" x="0px" y="0px"
	 viewBox="0 0 512 457" style="enable-background:new 0 0 512 457;" xml:space="preserve">
<style type="text/css">
	.st0{fill:#FFFFFF;}
</style>
<g>
	<path class="st0" d="M22.5,1.3h-15C3.4,1.3,0,4.7,0,8.8v14c0,4.2,3.4,7.5,7.5,7.5S15,27,15,22.9v-6.5h7.5c4.2,0,7.5-3.4,7.5-7.5
		C30,4.7,26.6,1.3,22.5,1.3z"/>
	<path class="st0" d="M489.5,16.3h7.5v6.5c0,4.2,3.4,7.5,7.5,7.5s7.5-3.4,7.5-7.5v-14c0-4.2-3.4-7.5-7.5-7.5h-15
		c-4.2,0-7.5,3.4-7.5,7.5C482,13,485.4,16.3,489.5,16.3z"/>
	<path class="st0" d="M22.5,440.8H15v-6.5c0-4.2-3.4-7.5-7.5-7.5S0,430,0,434.1v14c0,4.2,3.4,7.5,7.5,7.5h15c4.2,0,7.5-3.4,7.5-7.5
		S26.6,440.8,22.5,440.8z"/>
	<path class="st0" d="M504.5,426.6c-4.2,0-7.5,3.4-7.5,7.5v6.5h-7.5c-4.2,0-7.5,3.4-7.5,7.5s3.4,7.5,7.5,7.5h15
		c4.2,0,7.5-3.4,7.5-7.5v-14C512,430,508.6,426.6,504.5,426.6z"/>
	<g>
		<path class="st0" d="M184.1,135.2c-4.3,0-7.8,3.5-7.8,7.8v22.7c0,4.3,3.5,7.8,7.8,7.8c4.3,0,7.8-3.5,7.8-7.8V143
			C191.9,138.7,188.4,135.2,184.1,135.2z"/>
		<path class="st0" d="M328.1,196.4c5,0,9-4.1,9-9v-19.1c10.3-3.7,17.4-13.6,17.4-24.8c0-14.6-11.8-26.4-26.4-26.4
			c-7.2,0-14.1,3-19.1,8.2L210.5,82c0-0.5,0.1-1.1,0.1-1.6c0-14.6-11.8-26.4-26.4-26.4c-14.6,0-26.4,11.8-26.4,26.4
			c0,0.5,0,1.1,0.1,1.6l-98.6,43.2c-4.9-5.3-11.8-8.2-19.1-8.2c-14.6,0-26.4,11.8-26.4,26.4c0,11.2,7.1,21.1,17.5,24.9v127.5
			c-10.4,3.7-17.5,13.6-17.5,24.9c0,14.6,11.8,26.4,26.4,26.4c7.4,0,14.5-3.2,19.5-8.6L84.2,349c1.1,0.5,2.4,0.8,3.6,0.8
			c3.7,0,6.9-2.1,8.4-5.5c2-4.6-0.2-10-4.8-11.9l-24.9-10.7c0-0.3,0-0.7,0-1c0-1.7-0.2-3.4-0.5-5.1l8.1-4c0.9,0.3,2,0.6,3.1,0.6
			c1.4,0,2.7-0.3,3.9-0.9l24.5-12c4.4-2.2,6.2-7.6,4.1-12c-2.2-4.4-7.6-6.2-12-4.1l-19.4,9.5c-2.3-0.9-5-0.9-7.4,0.3l-14.3,7.1
			c-2.2-1.7-4.6-3.2-7.2-4.1V168.2c3.7-1.4,7.2-3.7,9.9-6.6l98.6,43.2c0,0.5-0.1,1.1-0.1,1.6c0,11.2,7,21,17.4,24.8v10.4l-2.5,1.2
			c-4.5,2.2-6.3,7.7-4.2,12.2c1.3,2.6,3.7,4.4,6.6,4.9v97.7c-3.7,1.4-7.1,3.6-9.9,6.4l-37.2-16c-2.2-0.9-4.7-1-6.9-0.1
			s-4,2.6-4.9,4.9s-1,4.7-0.1,6.9c0.9,2.2,2.6,4,4.9,4.9l36.9,15.9c-0.1,0.6-0.1,1.3-0.1,1.9c0,14.6,11.8,26.4,26.4,26.4
			s26.4-11.8,26.4-26.4c0-0.6,0-1.3-0.1-1.9l98.2-42.2c4.9,5.4,12.1,8.6,19.4,8.6c14.6,0,26.4-11.8,26.4-26.4c0-11.2-7-21-17.4-24.8
			v-24.5c0-5-4.1-9-9-9c-5,0-9,4.1-9,9v24.5c-2.6,0.9-5.1,2.4-7.3,4.1l-14.2-7c-2.2-1.1-4.6-1.2-6.9-0.4c-0.8,0.3-1.5,0.7-2.2,1.1
			c-0.3-0.2-0.5-0.3-0.8-0.4l-23-11.3c-3.2-1.5-7-0.3-8.6,2.9c-1.5,3.2-0.3,7,2.9,8.6l23,11.3c0.9,0.4,1.9,0.7,2.8,0.7
			c0.3,0,0.4,0,0.7-0.1c0.9,1.6,2.2,3.1,4,3.9l12.8,6.3c-0.3,1.7-0.5,3.4-0.5,5.2c0,0.3,0,0.8,0,1.1L203,364.3
			c-2.7-2.8-6.1-5-9.9-6.4v-97.8c2.9-0.5,5.3-2.3,6.6-4.9c2.2-4.5,0.3-10-4.2-12.2l-2.5-1.2v-10.4c10.3-3.7,17.4-13.6,17.4-24.8
			c0-0.5,0-1.1-0.1-1.6l98.5-43.1c2.8,2.9,6.2,5.2,10,6.6v19.1C318.9,192.3,323,196.4,328.1,196.4z M319.8,143.4
			c0-4.6,3.7-8.3,8.3-8.3c4.6,0,8.3,3.7,8.3,8.3c0,4.5-3.7,8.3-8.3,8.3C323.5,151.7,319.8,148,319.8,143.4z M301.6,145.1l-98.5,43.1
			c-3.9-4.1-9-6.8-14.7-7.8c-2.7-1.5-6.2-1.5-8.9,0c-5.6,0.9-10.7,3.7-14.7,7.8L66.4,145c0-0.5,0.1-1,0.1-1.6c0-0.6,0-1-0.1-1.6
			L165,98.6c2.8,2.9,6.2,5.2,10,6.6v15.2c0,5,4.1,9,9,9s9-4.1,9-9v-15.2c3.7-1.4,7.2-3.7,10-6.6l98.6,43.2c0,0.5-0.1,1.1-0.1,1.6
			C301.6,144,301.6,144.5,301.6,145.1z M184.1,214.8c-4.6,0-8.3-3.7-8.3-8.3c0-4.6,3.7-8.3,8.3-8.3c4.6,0,8.3,3.7,8.3,8.3
			C192.4,211.1,188.6,214.8,184.1,214.8z M184.1,72.1c4.6,0,8.3,3.7,8.3,8.3c0,4.6-3.7,8.3-8.3,8.3c-4.6,0-8.3-3.7-8.3-8.3
			C175.9,75.8,179.5,72.1,184.1,72.1z M184.1,374.3c4.6,0,8.3,3.7,8.3,8.3c0,4.6-3.7,8.3-8.3,8.3c-4.6,0-8.3-3.7-8.3-8.3
			S179.5,374.3,184.1,374.3z M31.8,143.4c0-4.6,3.7-8.3,8.3-8.3s8.3,3.7,8.3,8.3c0,1-0.2,2-0.6,3.1c-0.1,0.1-0.1,0.2-0.1,0.3
			s-0.1,0.1-0.1,0.2c-1.4,2.9-4.3,4.9-7.5,4.9C35.5,151.7,31.8,148,31.8,143.4z M48.3,320.6c0,4.6-3.7,8.3-8.3,8.3
			c-4.6,0-8.3-3.7-8.3-8.3s3.7-8.3,8.3-8.3C44.6,312.4,48.3,316,48.3,320.6z M319.8,320.6c0-1.3,0.3-2.6,0.9-3.7
			c0.4-0.5,0.8-1,1-1.6c1.6-1.9,3.8-3,6.3-3c4.6,0,8.3,3.7,8.3,8.3c0,4.6-3.7,8.3-8.3,8.3c-3.2,0-6.1-1.9-7.4-4.7
			c-0.1-0.3-0.2-0.4-0.3-0.7c0-0.1-0.1-0.2-0.1-0.3C319.9,322.4,319.8,321.5,319.8,320.6z"/>
		<path class="st0" d="M135.9,278.9c1.2,0,2.4-0.3,3.4-0.8l20.4-10c3.8-1.9,5.5-6.6,3.6-10.4l0,0c-1.9-3.8-6.6-5.5-10.4-3.6
			l-20.4,10c-3.8,1.9-5.5,6.6-3.6,10.4C130.2,277.2,132.9,278.9,135.9,278.9z"/>
		<path class="st0" d="M220.7,261c-3.4-1.6-7.5-0.3-9.1,3.2c-1.6,3.4-0.3,7.5,3.2,9.1l24.5,12c0.9,0.5,2,0.7,3,0.7
			c2.6,0,4.9-1.4,6.1-3.8c1.6-3.4,0.3-7.5-3.2-9.1L220.7,261z"/>
	</g>
	<path class="st0" d="M398.5,255.7c1.5,1.5,3.9,1.5,5.5,0l20.5-20.5c0.7-0.7,1.1-1.7,1.1-2.7c0-1-0.4-2-1.1-2.7l-20.5-20.5
		c-1.5-1.5-3.9-1.5-5.5,0c-0.7,0.7-1.1,1.7-1.1,2.7s0.4,2,1.1,2.7l13.9,13.9h-90.9c-2.1,0-3.9,1.7-3.9,3.9c0,2.1,1.7,3.9,3.9,3.9
		h90.9l-13.9,13.9C397,251.8,397,254.2,398.5,255.7z"/>
	<g>
		<path class="st0" d="M352,232c0,0.4-0.1,0.7-0.1,1.1h8.8c0-0.4,0.1-0.7,0.1-1.1H352z"/>
		<path class="st0" d="M404.9,267.1c0-2.3,1.8-4.2,4-4.3h-24c-11.8-0.7-21.9-10.8-24-23h-8.9c0.9,7.3,4.1,14.3,9.1,20
			c6.3,7.1,14.5,11.2,23.3,11.7c0.1,0,0.2,0,0.3,0h27.9c0.1,0,0.2,0,0.3,0h-3.7C406.9,271.5,404.9,269.5,404.9,267.1z"/>
		<path class="st0" d="M417.1,267.1c0-2.4-1.9-4.4-4.4-4.4H409c-2.3,0.2-4,2-4,4.3c0,2.4,1.9,4.4,4.4,4.4h3.7
			C415.3,271.3,417.1,269.4,417.1,267.1z"/>
		<path class="st0" d="M479.9,192.6c-1.7-10-6.6-19.1-14.2-26.1c-8.4-7.7-19.4-12-30.8-12c-8.8,0-17.4,2.5-24.7,7.3
			c-6.1,4-11.2,9.3-14.8,15.6c-1.6-0.3-3.2-0.5-4.8-0.5c-13.8,0-25,11.2-25,25c0,1.8,0.2,3.5,0.5,5.2c-6.2,4.5-10.7,11-12.9,18.2
			h9.2c2.1-5.2,5.9-9.7,10.9-12.6c1.8-1.1,2.6-3.3,1.9-5.3c-0.6-1.7-1-3.6-1-5.6c0-8.9,7.3-16.2,16.2-16.2c1.9,0,3.8,0.3,5.5,1
			c2.1,0.8,4.5-0.2,5.5-2.2c6.1-12.9,19.1-21.2,33.4-21.2c19.1,0,34.9,14.3,36.7,33.3c0.2,2,1.7,3.6,3.6,3.9
			c14.4,2.5,25.3,15.8,25.3,31c0,16.1-12.7,30.1-28.3,31.3h-63c-0.1,0-0.2,0-0.3,0h3.7c2.4,0,4.4,1.9,4.4,4.4c0,2.3-1.8,4.2-4,4.3
			h59.5c0.1,0,0.2,0,0.3,0c9.9-0.7,19.1-5.2,26-12.8c6.8-7.5,10.6-17.2,10.6-27.2C509.3,213.2,496.9,197.1,479.9,192.6z"/>
	</g>
</g>
</svg>
