<?xml version="1.0" encoding="utf-8"?>
<!-- Generator: Adobe Illustrator 22.1.0, SVG Export Plug-In . SVG Version: 6.00 Build 0)  -->
<svg version="1.1" id="Capa_1" xmlns="http://www.w3.org/2000/svg" xmlns:xlink="http://www.w3.org/1999/xlink" x="0px" y="0px"
	 viewBox="0 0 512 457" style="enable-background:new 0 0 512 457;" xml:space="preserve">
<style type="text/css">
	.st0{fill:#FFFFFF;}
</style>
<g>
	<g>
		<path class="st0" d="M22.5,1.3h-15C3.4,1.3,0,4.7,0,8.8v14c0,4.2,3.4,7.5,7.5,7.5S15,27,15,22.9v-6.5h7.5c4.2,0,7.5-3.4,7.5-7.5
			C30,4.7,26.6,1.3,22.5,1.3z"/>
		<path class="st0" d="M489.5,16.3h7.5v6.5c0,4.2,3.4,7.5,7.5,7.5s7.5-3.4,7.5-7.5v-14c0-4.2-3.4-7.5-7.5-7.5h-15
			c-4.2,0-7.5,3.4-7.5,7.5C482,13,485.4,16.3,489.5,16.3z"/>
		<path class="st0" d="M22.5,440.7H15v-6.5c0-4.2-3.4-7.5-7.5-7.5S0,430,0,434.1v14c0,4.2,3.4,7.5,7.5,7.5h15c4.2,0,7.5-3.4,7.5-7.5
			S26.6,440.7,22.5,440.7z"/>
		<path class="st0" d="M504.5,426.6c-4.2,0-7.5,3.4-7.5,7.5v6.5h-7.5c-4.2,0-7.5,3.4-7.5,7.5s3.4,7.5,7.5,7.5h15
			c4.2,0,7.5-3.4,7.5-7.5v-14C512,430,508.6,426.6,504.5,426.6z"/>
		<path class="st0" d="M256.1,119.5c-5,0-9.1,4.1-9.1,9.1v26.6c0,5,4.1,9.1,9.1,9.1s9.1-4.1,9.1-9.1v-26.6
			C265.2,123.6,261.1,119.5,256.1,119.5z"/>
		<path class="st0" d="M425,191.3c5.9,0,10.6-4.8,10.6-10.6v-22.4c12.1-4.4,20.4-16,20.4-29.1c0-17.1-13.9-31-31-31
			c-8.5,0-16.5,3.5-22.4,9.6L287,57c0-0.6,0.1-1.3,0.1-1.9c0-17.1-13.9-31-31-31s-31,13.9-31,31c0,0.6,0,1.3,0.1,1.9l-115.7,50.7
			c-5.8-6.2-13.9-9.6-22.4-9.6c-17.1,0-31,13.9-31,31c0,13.2,8.3,24.8,20.5,29.2v149.6c-12.2,4.4-20.5,16-20.5,29.2
			c0,17.1,13.9,31,31,31c8.7,0,17-3.7,22.9-10.1l28.8,12.4c1.3,0.6,2.8,0.9,4.2,0.9c4.3,0,8.1-2.5,9.8-6.4c2.3-5.4-0.2-11.7-5.6-14
			L118,338.3c0-0.4,0-0.8,0-1.2c0-2-0.2-4-0.6-6l9.5-4.7c1.1,0.4,2.4,0.7,3.6,0.7c1.6,0,3.2-0.4,4.6-1.1l28.7-14.1
			c5.2-2.6,7.3-8.9,4.8-14.1c-2.6-5.2-8.9-7.3-14.1-4.8l-22.8,11.2c-2.7-1.1-5.9-1.1-8.7,0.3l-16.8,8.3c-2.6-2-5.4-3.7-8.5-4.8
			V158.2c4.4-1.6,8.4-4.3,11.6-7.7L225,201.2c0,0.6-0.1,1.3-0.1,1.9c0,13.1,8.2,24.7,20.4,29.1v12.2l-2.9,1.4
			c-5.3,2.6-7.4,9-4.9,14.3c1.5,3.1,4.4,5.2,7.8,5.8v114.7c-4.3,1.6-8.3,4.2-11.6,7.5l-43.6-18.8c-2.6-1.1-5.5-1.2-8.1-0.1
			s-4.7,3.1-5.8,5.7s-1.2,5.5-0.1,8.1s3.1,4.7,5.7,5.8l43.3,18.7c-0.1,0.7-0.1,1.5-0.1,2.2c0,17.1,13.9,31,31,31s31-13.9,31-31
			c0-0.7,0-1.5-0.1-2.2L402.1,358c5.8,6.3,14.2,10.1,22.8,10.1c17.1,0,31-13.9,31-31c0-13.1-8.2-24.7-20.4-29.1v-28.8
			c0-5.9-4.8-10.6-10.6-10.6c-5.9,0-10.6,4.8-10.6,10.6V308c-3.1,1.1-6,2.8-8.6,4.8l-16.7-8.2c-2.6-1.3-5.4-1.4-8.1-0.5
			c-0.9,0.3-1.8,0.8-2.6,1.3c-0.3-0.2-0.6-0.4-0.9-0.5l-27-13.3c-3.7-1.8-8.2-0.3-10.1,3.4c-1.8,3.7-0.3,8.2,3.4,10.1l27,13.3
			c1.1,0.5,2.2,0.8,3.3,0.8c0.3,0,0.5,0,0.8-0.1c1,1.9,2.6,3.6,4.7,4.6l15,7.4c-0.4,2-0.6,4-0.6,6.1c0,0.4,0,0.9,0,1.3l-115.7,49.8
			c-3.2-3.3-7.2-5.9-11.6-7.5V266c3.4-0.6,6.2-2.7,7.8-5.8c2.6-5.3,0.4-11.7-4.9-14.3l-2.9-1.4v-12.2c12.1-4.4,20.4-16,20.4-29.1
			c0-0.6,0-1.3-0.1-1.9l115.6-50.6c3.3,3.4,7.3,6.1,11.7,7.7v22.4C414.3,186.5,419.1,191.3,425,191.3z M415.3,129.1
			c0-5.4,4.4-9.7,9.7-9.7c5.4,0,9.7,4.4,9.7,9.7s-4.4,9.7-9.7,9.7C419.6,138.8,415.3,134.5,415.3,129.1z M394,131.1l-115.6,50.6
			c-4.6-4.8-10.6-8-17.2-9.1c-3.2-1.8-7.3-1.8-10.4,0c-6.6,1.1-12.6,4.3-17.2,9.1L118,131c0-0.6,0.1-1.2,0.1-1.9s0-1.2-0.1-1.9
			l115.7-50.7c3.3,3.4,7.3,6.1,11.7,7.7V102c0,5.9,4.8,10.6,10.6,10.6c5.8,0,10.6-4.8,10.6-10.6V84.2c4.4-1.6,8.5-4.3,11.7-7.7
			L394,127.2c0,0.6-0.1,1.3-0.1,1.9C394,129.8,394,130.4,394,131.1z M256.1,212.9c-5.4,0-9.7-4.4-9.7-9.7c0-5.4,4.4-9.7,9.7-9.7
			c5.4,0,9.7,4.4,9.7,9.7C265.8,208.5,261.4,212.9,256.1,212.9z M256.1,45.4c5.4,0,9.7,4.4,9.7,9.7c0,5.4-4.4,9.7-9.7,9.7
			c-5.4,0-9.7-4.4-9.7-9.7C246.4,49.8,250.7,45.4,256.1,45.4z M256.1,400.1c5.4,0,9.7,4.4,9.7,9.7c0,5.4-4.4,9.7-9.7,9.7
			c-5.4,0-9.7-4.4-9.7-9.7C246.4,404.5,250.7,400.1,256.1,400.1z M77.3,129.1c0-5.4,4.4-9.7,9.7-9.7s9.7,4.4,9.7,9.7
			c0,1.2-0.2,2.4-0.7,3.6c-0.1,0.1-0.1,0.2-0.1,0.3s-0.1,0.1-0.1,0.2c-1.6,3.4-5,5.7-8.8,5.7C81.7,138.8,77.3,134.5,77.3,129.1z
			 M96.7,337.1c0,5.4-4.4,9.7-9.7,9.7c-5.4,0-9.7-4.4-9.7-9.7s4.4-9.7,9.7-9.7C92.4,327.4,96.7,331.7,96.7,337.1z M415.3,337.1
			c0-1.5,0.4-3,1.1-4.4c0.5-0.6,0.9-1.2,1.2-1.9c1.9-2.2,4.5-3.5,7.4-3.5c5.4,0,9.7,4.4,9.7,9.7c0,5.4-4.4,9.7-9.7,9.7
			c-3.7,0-7.1-2.2-8.7-5.5c-0.1-0.3-0.2-0.5-0.3-0.8c0-0.1-0.1-0.2-0.1-0.3C415.4,339.2,415.3,338.1,415.3,337.1z"/>
		<path class="st0" d="M199.5,288.1c1.4,0,2.8-0.3,4-0.9l23.9-11.7c4.5-2.2,6.4-7.7,4.2-12.2l0,0c-2.2-4.5-7.7-6.4-12.2-4.2
			l-23.9,11.7c-4.5,2.2-6.4,7.7-4.2,12.2C192.8,286.1,196,288.1,199.5,288.1z"/>
		<path class="st0" d="M299,267.1c-4-1.9-8.8-0.3-10.7,3.7c-1.9,4-0.3,8.8,3.7,10.7l28.7,14.1c1.1,0.6,2.3,0.8,3.5,0.8
			c3,0,5.8-1.6,7.2-4.5c1.9-4,0.3-8.8-3.7-10.7L299,267.1z"/>
	</g>
	<path class="st0" d="M509.7,220.2L466.5,177c-4-4-9.9-0.6-9.9,4.3v19.1c-22.5,0.9-40.4,8.3-53.1,21c-19.4,19.4-19.4,45-19.4,46
		c0,3.1,2.5,5.9,5.9,5.9c2.2,0,4-0.9,4.9-2.8c11.1-19.7,40.4-22.8,56.8-22.8h4.9v19.7c0,4.9,6.2,8,9.9,4.3l43.2-43.2
		c1.2-1.2,1.5-2.8,1.5-4.3C511.3,222.6,511,221.4,509.7,220.2z M468.4,253.2v-10.8c0-3.1-2.2-5.6-5.2-5.9c-0.3,0-4.6-0.6-11.4-0.6
		c-13.9,0-35.8,2.2-52.1,13c2.5-6.2,6.2-13,12.3-19.1c11.4-11.4,28.7-17.6,50.6-17.6c3.4,0,5.9-2.5,5.9-5.9v-10.8l28.7,28.7
		L468.4,253.2z"/>
</g>
</svg>
